HIERARCHY
ROOT Hips
{
  OFFSET 0 0 0
  CHANNELS 6 Xposition Yposition Zposition Zrotation Yrotation Xrotation
  JOINT LeftThigh
  {
    OFFSET 8.409438 0 -5.917753
    CHANNELS 3 Zrotation Yrotation Xrotation
    JOINT LeftLeg
    {
      OFFSET 0 0 -42.358652
      CHANNELS 3 Zrotation Yrotation Xrotation
      JOINT LeftFoot
      {
        OFFSET 0 0 -39.357303
        CHANNELS 3 Zrotation Yrotation Xrotation
      }
    }
  }
  JOINT RightThigh
  {
    OFFSET -8.409438 0 -5.917753
    CHANNELS 3 Zrotation Yrotation Xrotation
    JOINT RightLeg
    {
      OFFSET 0 0 -42.358652
      CHANNELS 3 Zrotation Yrotation Xrotation
      JOINT RightFoot
      {
        OFFSET 0 0 -39.357303
        CHANNELS 3 Zrotation Yrotation Xrotation
      }
    }
  }
  JOINT SpineLow
  {
    OFFSET 0 0 4.719101
    CHANNELS 3 Zrotation Yrotation Xrotation
    JOINT SpineMid
    {
      OFFSET 0 0 12.899191
      CHANNELS 3 Zrotation Yrotation Xrotation
      JOINT Chest
      {
        OFFSET 0 0 12.899191
        CHANNELS 3 Zrotation Yrotation Xrotation
        JOINT LeftShoulder
        {
          OFFSET 7.550562 1.41573 9.438202
          CHANNELS 3 Zrotation Yrotation Xrotation
          JOINT LeftArm
          {
            OFFSET 9.155056 0 4.247191
            CHANNELS 3 Zrotation Yrotation Xrotation
            JOINT LeftForearm
            {
              OFFSET 0 0 25.771955
              CHANNELS 3 Zrotation Yrotation Xrotation
              JOINT LeftHand
              {
                OFFSET 0 0 25.197169
                CHANNELS 3 Zrotation Yrotation Xrotation
              }
            }
          }
        }
        JOINT RightShoulder
        {
          OFFSET -7.550562 1.41573 9.438202
          CHANNELS 3 Zrotation Yrotation Xrotation
          JOINT RightArm
          {
            OFFSET -9.155056 0 4.247191
            CHANNELS 3 Zrotation Yrotation Xrotation
            JOINT RightForearm
            {
              OFFSET 0 0 -25.771955
              CHANNELS 3 Zrotation Yrotation Xrotation
              JOINT RightHand
              {
                OFFSET 0 0 -25.197169
                CHANNELS 3 Zrotation Yrotation Xrotation
              }
            }
          }
        }
        JOINT Neck
        {
          OFFSET 0 0 15.101124
          CHANNELS 3 Zrotation Yrotation Xrotation
          JOINT Head
          {
            OFFSET 0 0 11.325843
            CHANNELS 3 Zrotation Yrotation Xrotation
            End Site
            {
              OFFSET 0 0 14.157303
            }
          }
        }
      }
    }
  }
}
MOTION
Frames: 8
Frame Time: 0.0
0.0  93.25843  0.0  2.214964  -32.06224  -84.889891  12.657298  -12.200463  -10.547376  5.658349  1.53024  24.481994  10.457332  3.464651  6.474502  -8.962568  -0.076301  -18.50474  3.245135  10.396952  14.02556  7.515789  2.70373  0.112739  -5.871515  -1.142801  -2.29941  -15.938566  -3.655556  -5.971658  -15.938566  -3.655556  -5.971658  -9.716644  10.184127  14.681945  6.198383  57.554649  60.586654  -26.821942  -10.152467  137.507628  25.824113  -62.24329  89.707597  19.8695  0.019795  37.914237  50.4584  15.798803  41.855352  2.34355  -6.346128  -112.907436  53.322471  26.244733  -5.891593  25.513879  2.488708  5.249291  19.11277  2.09036  3.840262  
0.0  93.25843  0.0  2.196658  -31.739872  -84.923102  12.528691  -12.155623  -10.482629  5.54573  1.426129  24.246447  10.544974  3.381842  6.444338  -9.709701  -0.254551  -18.55061  3.3701  10.430235  14.114629  7.605629  2.712424  0.116214  -5.855027  -1.132076  -2.28398  -15.895195  -3.621354  -5.93323  -15.895195  -3.621354  -5.93323  -9.715608  10.203342  14.621758  5.539064  57.589994  59.847256  -27.071268  -10.364652  137.335128  25.922954  -63.243621  89.441238  19.872447  -0.006985  37.945834  50.551983  16.024983  41.938602  2.348462  -6.310615  -112.93636  53.642844  26.174052  -5.838011  25.397999  2.447631  5.46866  19.025584  2.067608  4.007241  
0.0  93.25843  0.0  2.182129  -31.532197  -84.930829  12.665152  -12.122762  -10.312835  5.690205  1.312797  24.02441  10.362682  3.224336  6.26048  -10.31438  -0.457913  -18.60818  3.36237  10.433073  14.194915  7.539799  2.703582  0.045023  -5.812208  -1.116227  -2.270489  -15.780089  -3.571462  -5.90282  -15.78009  -3.571463  -5.90282  -9.697772  10.130269  14.578934  5.189809  57.579193  59.578301  -27.267751  -10.579015  137.112311  26.099714  -64.056899  89.260781  19.764702  -0.12679  37.87701  50.740297  16.219052  42.179035  2.303987  -6.523459  -113.159335  53.968651  25.970347  -5.838391  25.340123  2.385965  5.766734  18.981922  2.03314  4.234021  
0.0  93.25843  0.0  2.132564  -31.192275  -84.848635  12.559673  -12.137296  -10.324557  5.8558  1.173347  23.762987  10.325646  3.115176  6.238763  -10.809892  -0.637583  -18.692061  3.366623  10.483992  14.266272  7.648076  2.708225  0.027458  -5.795018  -1.111705  -2.273169  -15.733272  -3.558349  -5.912174  -15.733273  -3.558349  -5.912174  -9.741765  10.045624  14.630187  5.084567  57.567391  59.499644  -27.38181  -10.755233  137.00846  26.508907  -64.555933  88.885328  19.715074  -0.195949  37.872028  50.825166  16.377009  42.203477  2.387094  -6.664693  -113.168418  54.133659  25.917189  -5.878352  25.18967  2.347197  6.02691  18.868727  2.013302  4.431635  
0.0  93.25843  0.0  2.099525  -30.882272  -84.76164  12.398921  -12.212984  -10.393751  6.109766  1.07415  23.566451  10.255198  3.035121  6.234411  -11.085571  -0.764592  -18.751529  3.172068  10.461302  14.321606  7.71887  2.762061  -0.029221  -5.754343  -1.094318  -2.275631  -15.623213  -3.508241  -5.925278  -15.623213  -3.508241  -5.925278  -10.015553  9.855926  14.647701  5.221566  57.565384  59.631525  -27.392096  -10.735583  136.688377  26.444533  -64.798625  89.168195  19.386776  -0.367756  37.727779  51.193754  16.511474  42.522561  2.324893  -6.966813  -113.372901  54.324726  25.754358  -5.872777  25.008568  2.295599  6.247136  18.732864  1.981728  4.599833  
0.0  93.25843  0.0  2.080093  -30.497851  -84.701956  12.188536  -12.272018  -10.455493  6.267636  0.991547  23.409285  10.12892  2.986224  6.20279  -11.188756  -0.789314  -18.761774  2.969789  10.486899  14.342199  7.723111  2.769075  -0.04496  -5.749512  -1.089584  -2.282361  -15.609968  -3.496551  -5.944943  -15.609969  -3.496551  -5.944943  -10.068675  9.805538  14.750112  5.254128  57.445988  59.697961  -27.407979  -10.772004  136.701876  26.851437  -64.756242  88.890038  19.311689  -0.415365  37.723275  51.274288  16.619026  42.46903  2.355749  -7.060335  -113.34852  54.595209  25.656856  -5.80387  24.894458  2.300461  6.441164  18.646641  1.992116  4.74577  
0.0  93.25843  0.0  2.031663  -30.006929  -84.568938  11.832474  -12.38693  -10.650036  6.295328  0.984642  23.320029  10.051056  2.963049  6.164681  -11.258413  -0.869844  -18.788859  2.899757  10.545951  14.408455  7.54649  2.742082  -0.100165  -5.771552  -1.097269  -2.299143  -15.668677  -3.523257  -5.987503  -15.668678  -3.523257  -5.987503  -10.187339  9.761261  14.737038  5.276349  57.352625  59.7169  -27.213455  -10.621018  136.396246  26.978312  -64.807665  89.141331  19.103382  -0.454469  37.565286  51.76612  16.745325  42.928388  2.22454  -7.242889  -113.580136  54.930125  25.504353  -5.668854  24.897561  2.33142  6.64125  18.64797  2.023608  4.894818  
0.0  93.25843  0.0  2.074039  -29.599744  -84.595468  11.592921  -12.446327  -10.732731  6.152961  1.073446  23.250644  10.048835  2.95352  6.141764  -11.151663  -0.761933  -18.734461  2.555059  10.570599  14.395491  7.520539  2.740175  -0.104637  -5.784263  -1.087904  -2.30324  -15.703884  -3.499917  -6.000058  -15.703883  -3.499917  -6.000057  -10.149135  9.775709  14.811896  5.295159  57.202746  59.736523  -27.263634  -10.749994  136.471052  27.400794  -64.806044  88.821492  19.092624  -0.458211  37.574216  51.792378  16.823349  42.838031  2.175279  -7.141565  -113.53302  55.370706  25.336096  -5.45295  24.850066  2.38949  6.763372  18.61121  2.071707  4.984317  
